<svg height="489pt" viewBox="-9 0 489 489.97097" width="489pt" xmlns="http://www.w3.org/2000/svg"><path d="m404.730469 149.816406c0-45.414062-36.800781-82.230468-82.195313-82.230468-45.394531 0-82.195312 36.816406-82.195312 82.230468 0 45.414063 36.800781 82.230469 82.195312 82.230469 45.394532 0 82.195313-36.816406 82.195313-82.230469zm0 0" fill="#ffdf74"/><path d="m226.402344 255.871094c-2.480469 0-4.859375-.917969-6.695313-2.582032-1.976562-1.792968-3.105469-4.289062-3.171875-7.03125-.074218-2.847656 1.039063-5.632812 3.046875-7.644531l17.617188-17.625c1.84375-1.84375 4.292969-2.859375 6.902343-2.859375 2.648438 0 5.144532 1.039063 7.027344 2.929688l.148438.148437c3.816406 3.820313 3.84375 10.0625.023437 13.886719l-17.851562 17.855469c-1.882813 1.882812-4.386719 2.921875-7.046875 2.921875zm0 0" fill="#ffd551"/><path d="m322.539062 295.652344c-.320312 0-.644531-.015625-.96875-.046875-5.046874-.484375-9.003906-4.957031-9.003906-10.183594v-24.902344c0-5.40625 4.441406-9.800781 9.898438-9.800781 2.769531 0 5.242187 1.003906 7.105468 2.828125 1.894532 1.851563 2.933594 4.328125 2.933594 6.976563v25.160156c0 5.496094-4.46875 9.96875-9.964844 9.96875zm0 0" fill="#ffdf74"/><path d="m418.5625 255.863281c-2.664062 0-5.167969-1.039062-7.050781-2.921875l-17.796875-17.800781c-1.871094-1.871094-2.882813-4.359375-2.855469-7.003906.023437-2.609375 1.058594-5.070313 2.921875-6.925781l.144531-.148438c1.847657-1.847656 4.339844-2.886719 6.984375-2.886719 2.613282 0 5.0625 1.015625 6.90625 2.863281l17.5625 17.570313c2.007813 2.007813 3.117188 4.792969 3.046875 7.640625-.066406 2.742188-1.195312 5.238281-3.175781 7.03125-1.832031 1.664062-4.207031 2.582031-6.6875 2.582031zm0 0" fill="#ffdf74"/><path d="m433.199219 159.804688c-2.609375 0-5.058594-1.019532-6.902344-2.863282-1.875-1.875-2.902344-4.375-2.898437-7.046875-.003907-2.757812 1-5.234375 2.824218-7.097656 1.851563-1.894531 4.328125-2.941406 6.976563-2.941406h24.882812c5.226563 0 9.703125 3.957031 10.179688 9.007812.269531 2.800781-.660157 5.601563-2.546875 7.671875-1.886719 2.074219-4.574219 3.265625-7.375 3.265625h-25.140625zm0 0" fill="#ffdf74"/><path d="m400.921875 81.46875c-2.644531 0-5.136719-1.042969-7.019531-2.925781l-.148438-.148438c-1.820312-1.820312-2.859375-4.28125-2.882812-6.886719-.027344-2.648437.992187-5.132812 2.859375-7.003906l17.789062-17.789062c1.878907-1.886719 4.382813-2.925782 7.046875-2.925782 2.824219 0 5.523438 1.207032 7.414063 3.308594 3.546875 3.9375 3.28125 10.070313-.605469 13.957032l-17.542969 17.554687c-1.847656 1.839844-4.296875 2.859375-6.910156 2.859375.003906 0 .003906 0 0 0zm0 0" fill="#ffdf74"/><path d="m322.601562 48.914062c-5.597656 0-10.035156-4.398437-10.035156-9.804687v-25.140625c0-5.496094 4.472656-9.972656 9.96875-9.972656.320313 0 .640625.015625.96875.050781 5.046875.480469 9 4.953125 9 10.183594v24.882812c0 2.648438-1.042968 5.125-2.933594 6.976563-1.859374 1.824218-4.335937 2.828125-6.957031 2.828125h-.011719zm0 0" fill="#ffdf74"/><path d="m186.625 159.804688c-2.804688 0-5.492188-1.191407-7.378906-3.269532-1.882813-2.070312-2.8125-4.871094-2.542969-7.671875.480469-5.046875 4.953125-9.003906 10.179687-9.003906h24.992188c2.648438 0 5.121094 1.042969 6.972656 2.9375 1.824219 1.863281 2.828125 4.339844 2.828125 6.964844 0 2.765625-1 5.238281-2.824219 7.101562-1.851562 1.894531-4.328124 2.941407-6.976562 2.941407zm0 0" fill="#ffd551"/><path d="m244.089844 81.519531c-2.605469 0-5.058594-1.015625-6.902344-2.859375l-17.839844-17.84375c-2.121094-2.125-3.167968-5.058594-2.871094-8.050781.300782-2.988281 1.925782-5.667969 4.460938-7.347656 1.585938-1.054688 3.441406-1.613281 5.375-1.613281 2.6875 0 5.332031 1.101562 7.25 3.019531l17.726562 17.734375c3.820313 3.824218 3.796876 10.0625-.054687 13.917968-1.996094 2.003907-4.492187 3.042969-7.144531 3.042969.003906 0 .003906 0 0 0zm0 0" fill="#ffd551"/><g fill="#3762cc"><path d="m322.535156 236.046875c-47.527344 0-86.195312-38.683594-86.195312-86.230469s38.667968-86.230468 86.195312-86.230468 86.195313 38.683593 86.195313 86.230468c0 47.542969-38.667969 86.230469-86.195313 86.230469zm0-164.460937c-43.117187 0-78.195312 35.09375-78.195312 78.230468 0 43.132813 35.078125 78.226563 78.195312 78.226563 43.117188 0 78.195313-35.09375 78.195313-78.226563 0-43.136718-35.078125-78.230468-78.195313-78.230468zm0 0"/><path d="m226.402344 259.871094c-3.476563 0-6.804688-1.285156-9.378906-3.621094-2.796876-2.53125-4.390626-6.046875-4.484376-9.894531-.097656-3.9375 1.4375-7.789063 4.214844-10.566407l17.617188-17.625c2.605468-2.601562 6.058594-4.03125 9.734375-4.03125 3.714843 0 7.21875 1.457032 9.859375 4.105469l.140625.140625c2.605469 2.601563 4.042969 6.066406 4.046875 9.761719.011718 3.703125-1.417969 7.179687-4.023438 9.785156l-17.851562 17.851563c-2.636719 2.640625-6.144532 4.09375-9.875 4.09375zm17.699218-37.738282c-1.539062 0-2.984374.597657-4.074218 1.6875l-17.617188 17.625c-1.238281 1.238282-1.921875 2.957032-1.878906 4.714844.042969 1.636719.703125 3.117188 1.863281 4.164063 2.28125 2.070312 6.046875 1.980469 8.226563-.203125l17.851562-17.855469c1.085938-1.089844 1.683594-2.546875 1.679688-4.105469-.003906-1.5625-.609375-3.027344-1.703125-4.128906l-.148438-.144531c-1.132812-1.132813-2.621093-1.753907-4.199219-1.753907zm0 0"/><path d="m322.535156 299.652344c-.453125 0-.914062-.019532-1.375-.066406-7.050781-.671876-12.597656-6.894532-12.597656-14.164063v-24.898437c0-7.613282 6.234375-13.800782 13.898438-13.800782 3.769531 0 7.285156 1.40625 9.902343 3.960938 2.671875 2.617187 4.136719 6.109375 4.136719 9.839844v25.160156c.003906 7.703125-6.261719 13.96875-13.964844 13.96875zm-.074218-44.933594c-3.25 0-5.894532 2.605469-5.894532 5.800781v24.902344c0 3.1875 2.363282 5.914063 5.382813 6.199219.214843.023437.402343.03125.585937.03125 3.292969 0 5.96875-2.675782 5.96875-5.96875v-25.160156c0-1.5625-.617187-3.027344-1.730468-4.121094-1.128907-1.097656-2.617188-1.683594-4.3125-1.683594zm0 0"/><path d="m418.5625 259.859375c-3.730469 0-7.238281-1.453125-9.875-4.089844l-17.796875-17.800781c-2.636719-2.640625-4.070313-6.144531-4.03125-9.875.035156-3.660156 1.488281-7.113281 4.097656-9.710938l.144531-.148437c2.613282-2.617187 6.101563-4.058594 9.8125-4.058594 3.675782 0 7.132813 1.433594 9.734376 4.039063l17.558593 17.566406c2.78125 2.78125 4.316407 6.632812 4.21875 10.570312-.097656 3.84375-1.691406 7.359376-4.488281 9.894532-2.566406 2.332031-5.898438 3.613281-9.375 3.613281zm-17.648438-37.683594c-1.574218 0-3.050781.609375-4.15625 1.710938l-.148437.148437c-1.113281 1.117188-1.734375 2.582032-1.75 4.136719-.015625 1.5625.582031 3.03125 1.6875 4.136719l17.792969 17.800781c2.179687 2.175781 5.957031 2.269531 8.226562.207031 1.160156-1.054687 1.824219-2.535156 1.863282-4.167968.042968-1.757813-.640626-3.476563-1.875-4.714844l-17.5625-17.570313c-1.09375-1.089843-2.539063-1.6875-4.078126-1.6875zm0 0"/><path d="m458.339844 163.804688h-25.136719c-3.679687 0-7.132813-1.4375-9.734375-4.039063-2.628906-2.628906-4.074219-6.136719-4.066406-9.875-.003906-3.753906 1.402344-7.273437 3.960937-9.886719 2.609375-2.671875 6.105469-4.144531 9.839844-4.144531h24.878906c7.265625 0 13.488281 5.546875 14.164063 12.628906.375 3.921875-.925782 7.839844-3.570313 10.746094-2.640625 2.902344-6.410156 4.570313-10.335937 4.570313zm-25.140625-19.945313c-1.5625 0-3.027344.617187-4.117188 1.730469-1.105469 1.128906-1.6875 2.617187-1.683593 4.304687-.003907 1.605469.609374 3.101563 1.726562 4.21875 1.089844 1.085938 2.535156 1.6875 4.074219 1.6875h25.136719c1.675781 0 3.289062-.710937 4.414062-1.953125 1.132812-1.246094 1.691406-2.921875 1.53125-4.605468-.289062-3.019532-3.011719-5.386719-6.203125-5.386719h-24.878906zm0 0"/><path d="m400.925781 85.46875c-3.714843 0-7.214843-1.457031-9.855469-4.101562l-.144531-.144532c-2.578125-2.574218-4.019531-6.015625-4.054687-9.675781-.035156-3.730469 1.398437-7.234375 4.03125-9.871094l17.789062-17.792969c2.632813-2.636718 6.140625-4.09375 9.875-4.09375 3.957032 0 7.742188 1.691407 10.390625 4.628907 4.96875 5.519531 4.636719 14.070312-.753906 19.460937l-17.542969 17.554688c-2.601562 2.601562-6.0625 4.035156-9.734375 4.035156zm17.640625-37.679688c-1.597656 0-3.09375.625-4.21875 1.746094l-17.789062 17.796875c-1.105469 1.101563-1.703125 2.570313-1.6875 4.132813.015625 1.554687.621094 3.011718 1.707031 4.097656l.152344.152344c2.230469 2.234375 6.066406 2.261718 8.273437.058594l17.539063-17.550782c2.382812-2.382812 2.585937-6.09375.460937-8.453125-1.128906-1.257812-2.75-1.980469-4.4375-1.980469zm0 0"/><path d="m322.613281 52.914062h-.011719c-7.738281 0-14.039062-6.191406-14.039062-13.804687v-25.136719c0-8.152344 7.109375-14.6875 15.324219-13.910156 7.074219.679688 12.617187 6.902344 12.617187 14.167969v24.878906c0 3.730469-1.464844 7.222656-4.132812 9.832031-2.613282 2.5625-6.082032 3.972656-9.757813 3.972656zm-.078125-44.917968c-3.292968 0-5.96875 2.679687-5.96875 5.972656v25.140625c0 3.199219 2.707032 5.800781 6.039063 5.800781h.007812c1.574219 0 3.050781-.597656 4.164063-1.683594 1.113281-1.09375 1.726562-2.554687 1.726562-4.121093v-24.878907c0-3.191406-2.363281-5.914062-5.378906-6.203124-.199219-.015626-.394531-.027344-.589844-.027344zm0 0"/><path d="m211.875 163.804688h-25.25c-3.929688 0-7.699219-1.667969-10.339844-4.578126-2.640625-2.90625-3.941406-6.824218-3.566406-10.742187.675781-7.078125 6.898438-12.625 14.164062-12.625h24.992188c3.730469 0 7.222656 1.46875 9.835938 4.140625 2.558593 2.617188 3.964843 6.085938 3.960937 9.765625.003906 3.757813-1.402344 7.273437-3.960937 9.894531-2.613282 2.671875-6.101563 4.144532-9.835938 4.144532zm-24.992188-19.945313c-3.1875 0-5.910156 2.367187-6.199218 5.382813-.160156 1.683593.394531 3.363281 1.523437 4.605468 1.125 1.242188 2.738281 1.957032 4.417969 1.957032h25.25c1.5625 0 3.023438-.617188 4.113281-1.734376 1.105469-1.128906 1.6875-2.621093 1.6875-4.304687 0-1.578125-.597656-3.058594-1.6875-4.171875-1.09375-1.117188-2.550781-1.734375-4.113281-1.734375zm0 0"/><path d="m244.09375 85.519531c-3.679688 0-7.132812-1.433593-9.734375-4.03125l-17.835937-17.847656c-2.972657-2.972656-4.441407-7.078125-4.027344-11.273437.421875-4.191407 2.691406-7.9375 6.226562-10.285157 2.242188-1.492187 4.863282-2.28125 7.585938-2.28125 3.746094 0 7.421875 1.53125 10.082031 4.195313l17.726563 17.730468c5.375 5.378907 5.351562 14.160157-.054688 19.574219-2.699219 2.71875-6.242188 4.21875-9.96875 4.21875zm-17.78125-37.714843c-1.140625 0-2.234375.328124-3.160156.941406-1.53125 1.019531-2.511719 2.628906-2.691406 4.421875-.179688 1.789062.449218 3.546875 1.714843 4.816406l17.84375 17.847656c2.214844 2.222657 6.003907 2.214844 8.378907-.175781 2.296874-2.300781 2.320312-6.007812.058593-8.269531l-17.726562-17.734375c-1.171875-1.175782-2.78125-1.847656-4.417969-1.847656zm0 0"/></g><path d="m360.65625 263.15625h-2.179688c.464844-3.460938.726563-6.984375.726563-10.574219 0-43.53125-35.292969-78.824219-78.828125-78.824219-5.816406 0-11.476562.648438-16.933594 1.839844-12.414062-27.238281-39.859375-46.179687-71.742187-46.179687-43.535157 0-78.828125 35.289062-78.828125 78.824219 0 1.972656.097656 3.914062.238281 5.847656-9.195313-3.757813-19.25-5.847656-29.796875-5.847656-41.222656 0-75.03125 31.648437-78.511719 71.964843h-.007812s-.460938 3.597657-.25 9.324219c.160156 5.175781.800781 10.222656 1.914062 15.101562 4.496094 20.601563 18.664063 48.683594 61.335938 61.261719h292.863281c28.371094 0 51.371094-23 51.371094-51.371093 0-28.367188-23-51.367188-51.371094-51.367188zm0 0" fill="#e0ebfc"/><path d="m360.65625 369.898438h-292.863281c-.382813 0-.765625-.054688-1.132813-.164063-44.25-13.042969-59.289062-42.136719-64.113281-64.246094-1.160156-5.101562-1.839844-10.4375-2.003906-15.828125-.21875-5.964844.257812-9.792968.277343-9.957031.007813-.046875.015626-.097656.023438-.144531 3.808594-42.257813 39.972656-75.3125 82.46875-75.3125 8.746094 0 17.320312 1.355468 25.558594 4.035156 0-.011719 0-.023438 0-.035156 0-45.667969 37.15625-82.824219 82.824218-82.824219 31.296876 0 60.003907 17.816406 74.007813 45.652344 4.863281-.875 9.785156-1.3125 14.671875-1.3125 45.671875 0 82.824219 37.152343 82.824219 82.824219 0 2.164062-.089844 4.378906-.277344 6.617187 29.484375 1.195313 53.101563 25.554687 53.101563 55.324219 0 30.53125-24.835938 55.371094-55.367188 55.371094zm-292.28125-8h292.28125c26.121094 0 47.371094-21.25 47.371094-47.371094s-21.25-47.371094-47.371094-47.371094h-2.183594c-1.152344 0-2.25-.5-3.011718-1.371094-.757813-.867187-1.105469-2.019531-.953126-3.164062.457032-3.410156.691407-6.789063.691407-10.039063 0-41.257812-33.566407-74.824219-74.824219-74.824219-5.367188 0-10.777344.589844-16.078125 1.75-1.835937.402344-3.714844-.53125-4.496094-2.25-12.136719-26.628906-38.871093-43.839843-68.105469-43.839843-41.257812 0-74.824218 33.566406-74.824218 74.824219 0 1.65625.070312 3.421874.226562 5.554687.101563 1.378906-.523437 2.714844-1.640625 3.53125-1.121093.808594-2.582031.984375-3.863281.460937-9.007812-3.679687-18.523438-5.546874-28.285156-5.546874-38.484375 0-71.21875 30.003906-74.523438 68.308593-.011718.136719-.03125.273438-.054687.402344-.089844.863281-.359375 3.960937-.195313 8.433594.152344 4.898437.761719 9.722656 1.816406 14.359375 4.355469 19.941406 17.953126 46.140625 58.023438 58.152344zm0 0" fill="#3762cc"/><path d="m120.40625 352.273438v-174.453126c0-22.480468-18.226562-40.703124-40.703125-40.703124-22.480469 0-40.703125 18.226562-40.703125 40.703124v174.453126c-19.230469 12.953124-32 34.804687-32.34375 59.605468-.5625 40.355469 32.121094 73.777344 72.480469 74.089844 40.542969.308594 73.625-32.582031 73.625-73.054688-.003907-25.226562-12.855469-47.507812-32.355469-60.640624zm0 0" fill="#f9cfcf"/><path d="m79.703125 463.535156c-27.914063 0-50.621094-22.707031-50.621094-50.621094 0-18.53125 10.117188-35.566406 26.398438-44.460937l5.953125-3.253906v-183.320313c0-9.796875 7.96875-17.765625 17.765625-17.765625h1.007812c9.792969 0 17.765625 7.96875 17.765625 17.765625v183.320313l5.953125 3.253906c16.285157 8.894531 26.398438 25.929687 26.398438 44.460937 0 27.914063-22.707031 50.621094-50.621094 50.621094zm0 0" fill="#f9a7a7"/><path d="m97.972656 308.136719h-13.6875c-3.3125 0-6-2.6875-6-6 0-3.316407 2.6875-6 6-6h13.6875c3.3125 0 6 2.683593 6 6 0 3.3125-2.6875 6-6 6zm0 0" fill="#ffdf74"/><path d="m107.277344 339.484375h-22.992188c-3.3125 0-6-2.683594-6-6 0-3.3125 2.6875-6 6-6h22.992188c3.3125 0 6 2.6875 6 6 0 3.316406-2.6875 6-6 6zm0 0" fill="#ffdf74"/><path d="m107.0625 214.082031h-20.789062c-3.316407 0-6-2.683593-6-6 0-3.3125 2.683593-6 6-6h20.789062c3.3125 0 6 2.6875 6 6 0 3.316407-2.6875 6-6 6zm0 0" fill="#ffdf74"/><path d="m97.972656 245.433594h-13.6875c-3.3125 0-6-2.683594-6-6 0-3.3125 2.6875-6 6-6h13.6875c3.3125 0 6 2.6875 6 6 0 3.316406-2.6875 6-6 6zm0 0" fill="#ffdf74"/><path d="m107.277344 276.785156h-22.992188c-3.3125 0-6-2.6875-6-6s2.6875-6 6-6h22.992188c3.3125 0 6 2.6875 6 6s-2.6875 6-6 6zm0 0" fill="#ffdf74"/><path d="m167.660156 407.941406c-2.628906 4-4.191406 8.800782-4.261718 13.972656-.183594 13.628907 10.394531 25.28125 23.652343 25.996094 14.417969.773438 26.347657-10.996094 26.347657-25.628906 0-5.308594-1.574219-10.246094-4.265626-14.339844l-.003906-.007812-18.648437-28.839844c-.988281-1.53125-3.175781-1.53125-4.167969 0l-18.644531 28.835938c-.003907.003906-.003907.003906-.003907.007812zm0 0" fill="#a4c9ff"/><path d="m188.414062 451.945312c-.523437 0-1.046874-.011718-1.578124-.039062-15.34375-.824219-27.648438-14.304688-27.4375-30.046875.082031-5.765625 1.78125-11.339844 4.921874-16.113281.003907-.007813.007813-.011719.011719-.019532l.003907-.007812 18.621093-28.796875c1.203125-1.863281 3.238281-2.972656 5.441407-2.972656 2.207031 0 4.238281 1.113281 5.441406 2.972656l18.648437 28.839844c3.210938 4.886719 4.910157 10.601562 4.910157 16.523437 0 8.230469-3.386719 16.164063-9.292969 21.765625-5.414063 5.121094-12.355469 7.894531-19.691407 7.894531zm-.015624-68.703124-17.371094 26.863281c-.003906.007812-.019532.03125-.027344.039062-2.296875 3.496094-3.542969 7.585938-3.601562 11.828125-.15625 11.503906 8.753906 21.347656 19.867187 21.945313 5.707031.28125 11.148437-1.710938 15.332031-5.675781 4.320313-4.09375 6.796875-9.910157 6.796875-15.957032 0-4.355468-1.246093-8.550781-3.605469-12.140625zm0 0" fill="#3762cc"/><path d="m247.660156 443.941406c-2.628906 4-4.191406 8.800782-4.261718 13.972656-.183594 13.628907 10.394531 25.28125 23.652343 25.996094 14.417969.773438 26.347657-10.996094 26.347657-25.628906 0-5.308594-1.574219-10.246094-4.265626-14.339844l-.003906-.007812-18.648437-28.839844c-.988281-1.53125-3.175781-1.53125-4.167969 0l-18.644531 28.835938c-.003907.003906-.003907.003906-.003907.007812zm0 0" fill="#a4c9ff"/><path d="m268.414062 487.945312c-.523437 0-1.046874-.011718-1.578124-.039062-15.34375-.824219-27.648438-14.304688-27.4375-30.046875.082031-5.765625 1.78125-11.339844 4.921874-16.113281.003907-.007813.007813-.011719.011719-.019532l.003907-.007812 18.621093-28.796875c1.203125-1.863281 3.238281-2.972656 5.441407-2.972656 2.207031 0 4.238281 1.113281 5.441406 2.972656l18.648437 28.839844c3.210938 4.886719 4.910157 10.601562 4.910157 16.523437 0 8.230469-3.386719 16.164063-9.292969 21.765625-5.414063 5.121094-12.355469 7.894531-19.691407 7.894531zm-.015624-68.703124-17.371094 26.863281c-.003906.007812-.019532.03125-.027344.039062-2.296875 3.496094-3.542969 7.585938-3.601562 11.828125-.15625 11.503906 8.753906 21.347656 19.867187 21.945313 5.714844.300781 11.148437-1.707031 15.332031-5.675781 4.320313-4.09375 6.796875-9.910157 6.796875-15.957032 0-4.355468-1.246093-8.550781-3.605469-12.140625zm0 0" fill="#3762cc"/><path d="m79.707031 489.972656c-.203125 0-.402343 0-.605469-.003906-20.582031-.15625-39.902343-8.402344-54.398437-23.214844-14.503906-14.824218-22.335937-34.332031-22.046875-54.929687.339844-24.503907 12.390625-47.386719 32.34375-61.640625v-172.359375c0-24.648438 20.054688-44.707031 44.707031-44.707031 24.648438 0 44.703125 20.054687 44.703125 44.707031v172.359375c20.300782 14.496094 32.351563 37.789062 32.351563 62.730468 0 20.664063-8.097657 40.082032-22.800781 54.675782-14.5625 14.445312-33.808594 22.382812-54.253907 22.382812zm-.003906-348.855468c-20.238281 0-36.703125 16.464843-36.703125 36.707031v174.453125c0 1.328125-.664062 2.574218-1.765625 3.316406-18.835937 12.683594-30.265625 33.746094-30.582031 56.34375-.257813 18.453125 6.761718 35.929688 19.765625 49.21875 12.996093 13.28125 30.308593 20.671875 48.746093 20.8125.179688.003906.363282.003906.542969.003906 18.316407 0 35.5625-7.113281 48.613281-20.0625 13.179688-13.082031 20.4375-30.480468 20.4375-48.996094 0-22.992187-11.433593-44.421874-30.585937-57.320312-1.105469-.742188-1.765625-1.988281-1.765625-3.316406v-174.453125c0-20.242188-16.464844-36.707031-36.703125-36.707031zm0 0" fill="#3762cc"/></svg>